{"title":"The.Legend.of.Tarzan.2016.HDRIP.x264.AAC-SHOWSCEN","uid":15748170,"size":1581925568,"categoryP":"video","categoryS":"movies","magnet":"?xt=urn:btih:a30c5aa80e489de3ea37d9ffe303bd0269d10598&amp;dn=The.Legend.of.Tarzan.2016.HDRIP.x264.AAC-SHOWSCEN&amp;tr=udp%3A%2F%2Ftracker.leechers-paradise.org%3A6969&amp;tr=udp%3A%2F%2Fzer0day.ch%3A1337&amp;tr=udp%3A%2F%2Fopen.demonii.com%3A1337&amp;tr=udp%3A%2F%2Ftracker.coppersurfer.tk%3A6969&amp;tr=udp%3A%2F%2Fexodus.desync.com%3A6969","seeders":13,"leechers":9,"uploader":"showscen","files":12,"time":1472996787,"description":"Note : we are back with other exclusive , this version is clean no subs no sutter issue too , there many pics sample inside the torrent and video sample u can check , enjoy\r\nsee u soon.\r\n--- \nhttp://extraimago.com/images/2016/09/04/c3f1e8f9c18400a387339535cd9527d2.jpg \nhttp://extraimago.com/images/2016/09/04/369a53ceff031eefb2807b9d5d5ca1eb.jpg \nhttp://extraimago.com/images/2016/09/04/aa7a03683c03a373acfc4ab161d06f9c.jpg \nhttp://extraimago.com/images/2016/09/04/411b7ad340dad346cf5ee119adce4dbf.jpg\r\n---\r\nGeneral\r\nComplete name : /home/psb9581/files/The.Legend.of.Tarzan.2016.HDRIP.x264.AAC-SHOWSCEN/The.Legend.of.Tarzan.2016.HDRIP.x264.AAC-SHOWSCEN.mp4\r\nFormat : MPEG-4\r\nFormat profile : Base Media\r\nCodec ID : isom\r\nFile size : 1.46 GiB\r\nDuration : 1h 49mn\r\nOverall bit rate mode : Variable\r\nOverall bit rate : 1 901 Kbps\r\nMovie name : SHOWSCEN\r\nWriting application : Lavf55.37.101\r\n\r\nVideo\r\nID : 1\r\nFormat : AVC\r\nFormat/Info : Advanced Video Codec\r\nFormat profile :   \r\nFormat settings, CABAC : No\r\nFormat settings, ReFrames : 1 frame\r\nFormat settings, GOP : M=1, N=12\r\nCodec ID : avc1\r\nCodec ID/Info : Advanced Video Coding\r\nDuration : 1h 49mn\r\nBit rate mode : Variable\r\nBit rate : 1 701 Kbps\r\nMaximum bit rate : 3 400 Kbps\r\nWidth : 720 pixels\r\nHeight : 302 pixels\r\nDisplay aspect ratio : 2.40:1\r\nFrame rate mode : Constant\r\nFrame rate : 29.970 fps\r\nColor space : YUV\r\nChroma subsampling : 4:2:0\r\nBit depth : 8 bits\r\nScan type : Progressive\r\nBits/(Pixel*Frame) : 0.261\r\nStream size : 1.31 GiB (90%)\r\n\r\nAudio\r\nID : 2\r\nFormat : AAC\r\nFormat/Info : Advanced Audio Codec\r\nFormat profile : LC\r\nCodec ID : 40\r\nDuration : 1h 49mn\r\nDuration_LastFrame : -9ms\r\nBit rate mode : Constant\r\nBit rate : 192 Kbps\r\nChannel(s) : 2 channels\r\nChannel positions : Front: L R\r\nSampling rate : 44.1 KHz\r\nCompression mode : Lossy\r\nStream size : 151 MiB (10%)","torrent":{"xt":"urn:btih:a30c5aa80e489de3ea37d9ffe303bd0269d10598","amp;dn":"The.Legend.of.Tarzan.2016.HDRIP.x264.AAC-SHOWSCEN","amp;tr":["udp%3A%2F%2Ftracker.leechers-paradise.org%3A6969","udp%3A%2F%2Fzer0day.ch%3A1337","udp%3A%2F%2Fopen.demonii.com%3A1337","udp%3A%2F%2Ftracker.coppersurfer.tk%3A6969","udp%3A%2F%2Fexodus.desync.com%3A6969"],"infoHash":"a30c5aa80e489de3ea37d9ffe303bd0269d10598","infoHashBuffer":{"type":"Buffer","data":[163,12,90,168,14,72,157,227,234,55,217,255,227,3,189,2,105,209,5,152]},"announce":[],"urlList":[]}}